<svg id="Layer_1" data-name="Layer 1" xmlns="http://www.w3.org/2000/svg" viewBox="0 0 100 125"><title>Artboard 1 copy 2</title><path d="M50,28.53a22.73,22.73,0,0,0-2.5.14A22,22,0,0,0,34.7,66.28a18.54,18.54,0,0,1,5.67,13.21v2.82a5.44,5.44,0,0,0,5.44,5.44h8.39a5.44,5.44,0,0,0,5.44-5.44V79.49a18.1,18.1,0,0,1,5.53-13.07A21.78,21.78,0,0,0,72,50.51,22,22,0,0,0,50,28.53Zm12.4,35a22.12,22.12,0,0,0-6.77,16v2.82h0a1.44,1.44,0,0,1-1.44,1.44H45.81a1.44,1.44,0,0,1-1.44-1.44V79.49a22.57,22.57,0,0,0-6.89-16.08A18,18,0,0,1,47.95,32.64,18.7,18.7,0,0,1,50,32.53a18,18,0,0,1,18,18A17.82,17.82,0,0,1,62.4,63.52Z"/><path d="M56.51,89.72h-13a1.5,1.5,0,1,0,0,3h13a1.5,1.5,0,1,0,0-3Z"/><path d="M56.51,94.46h-13a1.5,1.5,0,0,0,0,3h13a1.5,1.5,0,0,0,0-3Z"/><path d="M24.88,49a1.5,1.5,0,0,0-1.5-1.5H14.73a1.5,1.5,0,0,0,0,3h8.64A1.5,1.5,0,0,0,24.88,49Z"/><path d="M85.27,47.47H76.62a1.5,1.5,0,0,0,0,3h8.64a1.5,1.5,0,0,0,0-3Z"/><path d="M50,23.85a1.5,1.5,0,0,0,1.5-1.5V13.7a1.5,1.5,0,0,0-3,0v8.64A1.5,1.5,0,0,0,50,23.85Z"/><path d="M68.83,31.64a1.5,1.5,0,0,0,1.06-.44L76,25.09A1.5,1.5,0,1,0,73.88,23l-6.11,6.11a1.5,1.5,0,0,0,1.06,2.56Z"/><path d="M30.11,66.74,24,72.85A1.5,1.5,0,0,0,26.12,75l6.11-6.11a1.5,1.5,0,0,0-2.12-2.12Z"/><path d="M30.11,31.21a1.5,1.5,0,1,0,2.12-2.12L26.12,23A1.5,1.5,0,0,0,24,25.09Z"/><path d="M69.89,66.74a1.5,1.5,0,0,0-2.12,2.12L73.88,75A1.5,1.5,0,0,0,76,72.85Z"/><path d="M53.25,99.2H46.74a1.5,1.5,0,0,0,0,3h6.51a1.5,1.5,0,0,0,0-3Z"/></svg>