<svg id="Layer_1" data-name="Layer 1" xmlns="http://www.w3.org/2000/svg" viewBox="0 0 270.32 239.08"><defs><style>.cls-1{fill:#38bdb6;}</style></defs><title>Artboard 10 copy 6</title><path class="cls-1" d="M229.79,24.61a3.39,3.39,0,0,0-3.71-.72L43.39,101.09a3.38,3.38,0,0,0-1.08,5.51c.53.53.54.53,77.11,28.37L147,210.85a3.39,3.39,0,0,0,3.1,2.23h.08a3.38,3.38,0,0,0,3.12-2.07l77.2-182.68A3.39,3.39,0,0,0,229.79,24.61ZM54,104,212.74,36.88,121.2,128.42Zm96.47,96.46L126,133.21l91.54-91.54Z"/><path class="cls-1" d="M108.64,139.35a80.39,80.39,0,0,1-6.88,9.91,38.29,38.29,0,0,0-7.25-5c-7.66-3.82-11.69-2.16-15.38,1.53a13,13,0,0,0-3.54,7.78A10.33,10.33,0,0,0,78.24,162a13.52,13.52,0,0,0,11.06,3.31c4.11-.5,8.26-2.61,12.4-6.27a19.15,19.15,0,0,1,3.39,7.57c1.28,6.63-1.56,13.92-8.45,21.67-.1.11-9.7,10.94-21.45,11.86q6.31-5.25,8.07-11.28a16.38,16.38,0,0,0-3.32-15,17.87,17.87,0,0,0-25.27,0,18.26,18.26,0,0,0-5.34,13.31,16.66,16.66,0,0,0,5.45,12.08,34.93,34.93,0,0,0,3.81,3,133.22,133.22,0,0,1-19.05,6.68l1.81,6.52a124.29,124.29,0,0,0,25-9.47,25.56,25.56,0,0,0,8.79,1c14.74-.86,26.1-13.65,26.55-14.17,8.35-9.39,11.72-18.62,10-27.43a26.25,26.25,0,0,0-5.27-11.21,84.83,84.83,0,0,0,8-11.34Zm-20,19.26A7.14,7.14,0,0,1,83,157.25c-1.3-1.3-.8-5,.9-6.68,1-1,1.75-1.75,3.07-1.75a10.91,10.91,0,0,1,4.49,1.48,31.66,31.66,0,0,1,5.59,3.85C93.63,157.16,90.79,158.3,88.65,158.61ZM65.76,198.54a24.88,24.88,0,0,1-6.44-4.3A10,10,0,0,1,56.09,187a11.47,11.47,0,0,1,3.36-8.36A11.11,11.11,0,0,1,75,178.5a9.52,9.52,0,0,1,1.71,8.62C75.91,189.81,73.34,194,65.76,198.54Z"/></svg>