<svg id="Layer_1" data-name="Layer 1" xmlns="http://www.w3.org/2000/svg" viewBox="0 0 270.32 239.08"><defs><style>.cls-1{fill:#38bdb6;}</style></defs><title>Artboard 10 copy 5</title><path class="cls-1" d="M132.23,56.29a52.85,52.85,0,0,0-35.32,89.3,47,47,0,0,1,13.4,32.49v2.62a4.78,4.78,0,0,0,4.78,4.78,4.72,4.72,0,0,0,1-.11l40.54-8.81a4.78,4.78,0,0,0,3.73-4.09,47.08,47.08,0,0,1,12.85-26.69,52.46,52.46,0,0,0,14.84-36.67A53,53,0,0,0,132.23,56.29Zm34.12,82.84a57,57,0,0,0-14.93,28.78l-31.64,6.88a56.73,56.73,0,0,0-16-35.81,43.29,43.29,0,0,1,28.93-73.14c.82,0,1.62-.06,2.43-.06a43.38,43.38,0,0,1,43.33,43.34A42.93,42.93,0,0,1,166.35,139.13Z"/><path class="cls-1" d="M146.1,192a4.79,4.79,0,0,0,1-.11l9.34-2a4.78,4.78,0,1,0-2-9.34l-9.33,2a4.78,4.78,0,0,0,1,9.45Z"/><path class="cls-1" d="M114.88,198.73a4.79,4.79,0,0,0,1-.11l20.17-4.38a4.78,4.78,0,1,0-2-9.34l-20.17,4.38a4.78,4.78,0,0,0,1,9.45Z"/><path class="cls-1" d="M154.62,193.74l-40.55,8.8a4.78,4.78,0,1,0,2,9.34l40.55-8.8a4.78,4.78,0,1,0-2-9.34Z"/><path class="cls-1" d="M148,208.67a3.59,3.59,0,0,0-4,3.09,8.89,8.89,0,0,1-15.11,5.07,7.74,7.74,0,0,1-1.18-1.49,3.59,3.59,0,1,0-6.15,3.69,15.05,15.05,0,0,0,2.26,2.87,16.06,16.06,0,0,0,27.29-9.2A3.59,3.59,0,0,0,148,208.67Z"/><path class="cls-1" d="M149.38,118.31a5.08,5.08,0,0,0-5.67-.05l-6,4a4.57,4.57,0,0,1-5,0l-6-4a5.09,5.09,0,0,0-7.77,5.31l2,9.19a3.59,3.59,0,0,0,7-1.49l-.9-4.22,1.79,1.18a11.74,11.74,0,0,0,12.93,0l1.79-1.18-4.76,22.42h-7l-1.32-6.22a3.59,3.59,0,0,0-7,1.49l1.85,8.71-.1,13.66a3.59,3.59,0,0,0,3.56,3.61h0a3.59,3.59,0,0,0,3.59-3.56l.07-10.52h5.61l-.07,7.69a3.59,3.59,0,0,0,3.55,3.62h0a3.59,3.59,0,0,0,3.59-3.55l.09-10.88,6.35-29.95A5.08,5.08,0,0,0,149.38,118.31Z"/><path class="cls-1" d="M69,107.49a3.59,3.59,0,0,0-3.59-3.59H42.73a3.59,3.59,0,0,0,0,7.17H65.38A3.59,3.59,0,0,0,69,107.49Z"/><path class="cls-1" d="M227.59,103.9H204.94a3.59,3.59,0,0,0,0,7.17h22.65a3.59,3.59,0,0,0,0-7.17Z"/><path class="cls-1" d="M131.57,15.06V37.71a3.59,3.59,0,1,0,7.17,0V15.06a3.59,3.59,0,1,0-7.17,0Z"/><path class="cls-1" d="M184.5,61.73a3.57,3.57,0,0,0,2.54-1l16-16A3.59,3.59,0,1,0,198,39.6l-16,16a3.58,3.58,0,0,0,2.53,6.12Z"/><path class="cls-1" d="M83.28,154.29l-16,16a3.59,3.59,0,0,0,5.07,5.07l16-16a3.59,3.59,0,0,0-5.07-5.07Z"/><path class="cls-1" d="M83.28,60.68a3.59,3.59,0,0,0,5.07-5.07l-16-16a3.59,3.59,0,0,0-5.07,5.07Z"/><path class="cls-1" d="M187,154.29a3.59,3.59,0,0,0-5.07,5.07l16,16a3.59,3.59,0,0,0,5.07-5.07Z"/></svg>