<svg id="Layer_1" data-name="Layer 1" xmlns="http://www.w3.org/2000/svg" viewBox="0 0 270.32 239.08"><defs><style>.cls-1{fill:#38bdb6;}</style></defs><title>Artboard 10 copy 2</title><path class="cls-1" d="M200.92,76.18h-7.13V63.91A58,58,0,0,0,135.87,6c-32,0-58.19,26-58.19,57.91V76.18H69.12A27.27,27.27,0,0,0,42,103.28V206a27.27,27.27,0,0,0,27.1,27.1H201.2A27.27,27.27,0,0,0,228.3,206V103.28A27.33,27.33,0,0,0,200.92,76.18ZM142.15,176.59v12a7.13,7.13,0,1,1-14.26,0v-12a16.76,16.76,0,0,1-10-15.69,17.12,17.12,0,1,1,34.23,0A16.76,16.76,0,0,1,142.15,176.59ZM179.52,76.18H91.94V63.91a43.79,43.79,0,0,1,87.58,0Z"/></svg>