<svg id="Layer_1" data-name="Layer 1" xmlns="http://www.w3.org/2000/svg" viewBox="0 0 100 125"><title>Artboard 1 copy</title><path d="M89.83,93.71l-20-33.34a1.42,1.42,0,0,0-2.44,0L61.74,70,50.91,52.6V40.7H71.55A1.42,1.42,0,0,0,73,39.28a1.42,1.42,0,0,0-.35-.94L65.2,30l7.38-8.36a1.42,1.42,0,0,0-.13-2,1.42,1.42,0,0,0-.94-.35H49.46A1.42,1.42,0,0,0,48,20.7V52.6L37.77,69.17l-5.17-8.8a1.42,1.42,0,0,0-2.44,0l-20,33.39a1.42,1.42,0,0,0,.77,1.85,1.44,1.44,0,0,0,1.69-.49L31.37,63.89l4.72,8L16.53,103.44a1.42,1.42,0,0,0,.26,2,1.42,1.42,0,0,0,2-.26l.1-.16,17.7-28.53a5.71,5.71,0,0,1,1.29,1.61c.93,1.43,2.21,3.4,4.84,3.4s3.84-1.88,4.83-3.4S49,76,50,76s1.53.73,2.47,2.13l.06.09c1,1.47,2.23,3.3,4.77,3.3s3.84-1.89,4.85-3.41a10.77,10.77,0,0,1,.66-1L80.09,105a1.42,1.42,0,1,0,2.48-1.39l-.05-.08L63.46,72.75l5.23-8.86L87.44,95.2a1.42,1.42,0,0,0,2,.24A1.44,1.44,0,0,0,89.83,93.71ZM62.25,29a1.42,1.42,0,0,0,0,1.87l6.13,6.94H50.91V22.12H68.38ZM54.8,76.43c-1-1.47-2.24-3.3-4.79-3.3s-3.89,2-4.83,3.4-1.5,2.12-2.47,2.12-1.52-.72-2.45-2.09A8.43,8.43,0,0,0,38.1,74L49.49,55.69,61.24,74.62c-.19.2-.37.4-.55.61V75l-.92,1.46c-.94,1.49-1.49,2.11-2.46,2.11S55.8,77.9,54.8,76.43Z"/></svg>