<svg id="Layer_1" data-name="Layer 1" xmlns="http://www.w3.org/2000/svg" viewBox="0 0 270.32 239.08"><defs><style>.cls-1{fill:#38bdb6;}</style></defs><title>Artboard 10 copy</title><path class="cls-1" d="M200.92,77.35h-109V65.08A43.83,43.83,0,0,1,172.24,41l14.09-4.26A57.92,57.92,0,0,0,135.87,7.17c-31.95,0-58.19,26-58.19,57.91V77.35H69.12A27.27,27.27,0,0,0,42,104.45v102.7a27.27,27.27,0,0,0,27.1,27.1H201.2a27.27,27.27,0,0,0,27.1-27.1V104.45A27.33,27.33,0,0,0,200.92,77.35ZM142.15,177.76v12a7.13,7.13,0,0,1-14.26,0v-12a16.76,16.76,0,0,1-10-15.69,17.12,17.12,0,1,1,34.23,0A16.76,16.76,0,0,1,142.15,177.76Z"/></svg>