<?xml version="1.0" standalone="no"?>
<!DOCTYPE svg PUBLIC "-//W3C//DTD SVG 20010904//EN"
 "http://www.w3.org/TR/2001/REC-SVG-20010904/DTD/svg10.dtd">
<svg version="1.0" xmlns="http://www.w3.org/2000/svg"
 width="2301.000000pt" height="429.000000pt" viewBox="0 0 2301.000000 429.000000"
 preserveAspectRatio="xMidYMid meet">
<metadata>
Created by potrace 1.15, written by Peter Selinger 2001-2017
</metadata>
<g transform="translate(0.000000,429.000000) scale(0.100000,-0.100000)"
fill="#000000" stroke="none">
<path d="M10390 2165 l0 -1285 240 0 240 0 0 117 0 116 156 209 c86 115 161
207 165 206 5 -2 89 -147 188 -323 l178 -320 273 -3 c256 -2 272 -1 268 15 -3
10 -138 251 -301 536 l-296 519 157 196 c86 109 220 278 299 377 79 99 143
183 143 187 0 5 -123 8 -272 8 l-273 -1 -340 -432 -340 -433 -3 798 -2 798
-240 0 -240 0 0 -1285z"/>
<path d="M20700 3085 l0 -365 -115 0 -115 0 0 -235 0 -235 114 0 114 0 5 -347
c4 -383 6 -397 73 -541 117 -255 359 -433 637 -471 43 -6 166 -11 273 -11
l194 0 0 239 0 240 -222 3 c-221 3 -224 3 -280 31 -77 38 -134 96 -171 175
l-32 67 -3 308 -4 307 356 0 356 0 0 235 0 235 -355 0 -355 0 0 365 0 365
-235 0 -235 0 0 -365z"/>
<path d="M12420 2985 l0 -234 613 -3 c575 -3 614 -4 647 -22 146 -77 181 -250
74 -360 -77 -79 -44 -76 -726 -76 l-608 0 0 -240 0 -240 610 0 c529 0 616 -2
648 -16 103 -43 160 -162 128 -267 -20 -67 -57 -111 -118 -141 l-52 -26 -608
0 -608 0 0 -241 0 -240 648 4 c723 4 692 1 841 77 143 73 242 174 312 316 48
100 69 191 69 309 0 159 -47 305 -133 418 l-37 47 37 48 c112 146 160 377 118
577 -41 195 -184 379 -365 469 -155 76 -150 76 -862 76 l-628 0 0 -235z"/>
<path d="M4262 2293 l3 -898 32 -83 c67 -175 188 -309 348 -388 198 -98 425
-100 620 -5 44 21 97 52 119 70 l39 31 47 -35 c118 -87 268 -135 420 -135 119
0 210 22 320 76 79 39 110 62 180 133 68 68 94 104 128 171 74 152 72 111 72
1088 l0 872 -235 0 -235 0 0 -832 c0 -557 -4 -846 -11 -871 -6 -21 -27 -56
-46 -78 -117 -129 -296 -105 -379 51 -18 33 -19 78 -22 883 l-2 847 -235 0
-235 0 0 -826 c0 -569 -3 -839 -11 -869 -6 -24 -27 -62 -46 -85 -112 -130
-296 -106 -379 50 -18 33 -19 78 -22 883 l-3 847 -235 0 -235 0 3 -897z"/>
<path d="M7540 2775 c-86 -19 -138 -39 -242 -92 -169 -86 -304 -226 -394 -408
-83 -168 -97 -234 -98 -450 -1 -213 14 -287 94 -450 92 -188 239 -337 425
-429 150 -75 221 -90 415 -90 150 0 173 3 253 27 297 91 514 294 622 581 45
119 58 199 58 356 1 197 -26 318 -105 477 -109 220 -310 386 -553 459 -78 23
-111 27 -250 30 -114 3 -179 -1 -225 -11z m329 -484 c127 -39 218 -120 276
-244 110 -231 37 -518 -166 -648 -143 -91 -335 -91 -479 1 -216 138 -283 461
-145 696 54 92 171 179 273 203 66 16 176 12 241 -8z"/>
<path d="M15225 2773 c-285 -60 -539 -270 -656 -543 -65 -152 -74 -202 -73
-415 0 -178 2 -196 28 -279 134 -436 502 -702 946 -683 307 13 572 164 738
421 183 283 208 681 63 992 -54 114 -113 195 -209 285 -123 116 -264 188 -434
223 -98 20 -307 20 -403 -1z m320 -479 c205 -53 337 -239 337 -474 0 -68 -6
-114 -21 -161 -143 -456 -756 -431 -876 36 -68 264 87 546 332 604 61 14 164
12 228 -5z"/>
<path d="M17295 2773 c-281 -60 -526 -258 -650 -526 -115 -249 -119 -569 -10
-828 119 -282 371 -488 675 -551 123 -26 317 -20 429 12 323 92 556 325 657
655 26 85 28 101 29 285 0 173 -3 204 -23 279 -49 178 -136 325 -265 448 -129
121 -298 205 -467 232 -92 15 -293 12 -375 -6z m365 -492 c115 -46 214 -148
261 -269 27 -71 37 -231 20 -314 -34 -164 -150 -294 -312 -348 -94 -32 -217
-25 -312 18 -167 76 -277 256 -277 452 0 228 133 420 330 475 77 21 217 14
290 -14z"/>
<path d="M8900 1800 l0 -920 240 0 240 0 0 540 c0 521 1 541 21 595 33 90 87
148 175 192 l77 38 244 4 243 3 0 235 0 235 -282 -5 c-227 -3 -295 -8 -343
-21 -87 -25 -232 -97 -291 -144 l-51 -40 -73 104 -73 104 -63 0 -64 0 0 -920z"/>
<path d="M19106 2704 c-194 -47 -357 -203 -418 -399 -29 -91 -30 -242 -4 -330
46 -155 152 -289 282 -357 131 -69 144 -71 507 -76 372 -5 372 -5 370 -78 -1
-31 -8 -45 -37 -71 l-36 -33 -520 0 -520 0 0 -241 0 -240 558 3 c543 3 559 4
622 26 247 83 409 306 410 562 0 207 -115 392 -302 484 -118 58 -174 66 -501
66 -316 0 -332 3 -362 60 -34 66 0 139 73 160 23 6 205 10 470 10 l432 0 0
235 0 235 -482 -1 c-382 0 -495 -4 -542 -15z"/>
</g>
</svg>
