<svg id="Layer_1" data-name="Layer 1" xmlns="http://www.w3.org/2000/svg" viewBox="0 0 100 125"><title>Artboard 1</title><path d="M38.66,38.79a1.36,1.36,0,0,0,1.09.47h.4l0,0a1.54,1.54,0,0,0,1-1.72c-1.15-4-.23-7.72,2.22-8.94a1.32,1.32,0,0,0,.75-.78,1.53,1.53,0,0,0,0-1.08A1.42,1.42,0,0,0,42.25,26C38.51,27.79,37,32.85,38.54,38.3A.63.63,0,0,0,38.66,38.79Z"/><path d="M77.66,29.3A16.77,16.77,0,0,0,67,20a17.67,17.67,0,0,0-9.32-.25.38.38,0,0,0-.22.07,17.56,17.56,0,0,0-24.8,4.9,16.73,16.73,0,0,0-15.93,4.7C9.2,37,10,48.22,18.6,56.84,24.27,62.51,32.15,66,39.16,66a17.54,17.54,0,0,0,5.45-.83l-3.17,5.06a1.33,1.33,0,0,0,0,1.46,1.5,1.5,0,0,0,1.27.7h5c.79,3.08,1.77,8.56-.14,11.95-3.23,5.51-2.25,14.72.87,17.84a1.4,1.4,0,0,0,2,0,1.4,1.4,0,0,0,0-2c-2.09-2-3.09-9.76-.43-14.27,1.78-3,2-7.67.69-13.39h3.6a1.5,1.5,0,0,0,1.27-.7,1.33,1.33,0,0,0,0-1.45l-4.2-6.82a14.06,14.06,0,0,0,2.36,1,10.81,10.81,0,0,0,3.4.49c8.39,0,17.91-8.9,21.22-19.85C80.19,39.36,79.93,33.85,77.66,29.3Zm-48.47,8a33.06,33.06,0,0,0,4.2,15.83c2.67,4.71,6.23,8,10.09,9.21-6.46,2.26-16.13-.94-22.87-7.68-7.43-7.43-8.21-17-1.9-23.35a13.9,13.9,0,0,1,10-4.24,14.78,14.78,0,0,1,2.55.22A25.4,25.4,0,0,0,29.19,37.35ZM47.33,19.58c8.92,0,15.16,7.3,15.16,17.76,0,11.9-7.22,22.74-15.16,22.74S32.18,49.25,32.18,37.35C32.18,26.89,38.41,19.58,47.33,19.58Zm18,17.88c0-6-1.84-11.32-5.2-15.11a13.74,13.74,0,0,1,6.07.54,14,14,0,0,1,8.85,7.57c1.92,4,2.08,8.72.46,13.8h0C72.14,55.64,62.12,64,54.5,61.75a5.11,5.11,0,0,1-.94-.36C60.32,57.54,65.36,47.38,65.36,37.46ZM51.51,69.57H45.29l3.11-5.19Z"/></svg>