<svg xmlns="http://www.w3.org/2000/svg" xmlns:xlink="http://www.w3.org/1999/xlink" version="1.1" x="0px" y="0px" viewBox="0 0 100 125" style="enable-background:new 0 0 100 100;" xml:space="preserve"><path d="M50,4.8l0,7h0c20.8,0,37.8,16.9,38,37.6l0,30.3c0,2.1-0.8,4.1-2.3,5.7c-1.5,1.5-3.5,2.3-5.7,2.3l-31.1,0  c-10.2-0.3-19.7-4.6-26.7-12.1C15.2,68.1,11.6,58.3,12,48c0.9-19.5,16.9-35.4,36.4-36.2c0.5,0,1.1,0,1.6,0L50,4.8 M50,4.8  c-0.6,0-1.3,0-1.9,0C25,5.7,6.1,24.5,5,47.7C3.9,73,23.8,94,48.7,94.7l31.2,0c0,0,0,0,0,0c8.3,0,15-6.7,15-15l0-30.4  C94.8,24.7,74.7,4.8,50,4.8L50,4.8z"/><g><path d="M56.5,66.1H44v-1.7c0.5-0.2,0.9-0.4,1.4-0.6c0.5-0.2,1-0.3,1.6-0.5V46.6l-3-0.4v-1.7c0.5-0.2,1-0.4,1.7-0.5   c0.7-0.2,1.4-0.3,2.2-0.5c0.8-0.1,1.5-0.3,2.2-0.4c0.7-0.1,1.4-0.2,1.9-0.2h1.5v20.4c0.6,0.2,1.1,0.3,1.6,0.5   c0.5,0.2,0.9,0.4,1.4,0.6V66.1z M46.3,36c0-1.1,0.4-1.9,1.1-2.5c0.7-0.6,1.6-0.9,2.8-0.9c1.1,0,2.1,0.3,2.8,0.9   c0.7,0.6,1.1,1.4,1.1,2.5c0,1-0.4,1.8-1.1,2.5c-0.7,0.6-1.6,0.9-2.8,0.9c-1.1,0-2.1-0.3-2.8-0.9C46.6,37.9,46.3,37,46.3,36z"/></g><text x="0" y="115" fill="#000000" font-size="5px" font-weight="bold" font-family="'Helvetica Neue', Helvetica, Arial-Unicode, Arial, Sans-serif">Created by Viktor Vorobyev</text><text x="0" y="120" fill="#000000" font-size="5px" font-weight="bold" font-family="'Helvetica Neue', Helvetica, Arial-Unicode, Arial, Sans-serif">from the Noun Project</text></svg>