<svg id="Layer_1" data-name="Layer 1" xmlns="http://www.w3.org/2000/svg" viewBox="0 0 270.32 239.08"><defs><style>.cls-1,.cls-2{fill:#38bdb6;stroke:#38bdb6;stroke-miterlimit:10;}.cls-2{stroke-width:4px;}</style></defs><title>Artboard 10 copy 3</title><path class="cls-1" d="M51.23,103.6l39-22.52,24.15,41.79-39,22.52Z"/><path class="cls-1" d="M90.73,136.54l8.05,13.93L59.73,173,35.57,131.2l23.71-13.67"/><path class="cls-1" d="M75.35,145.34l23.49,5.11"/><path class="cls-2" d="M83.86,70l83.7,144.82"/><path class="cls-1" d="M219.09,103.6,180,81.08l-24.15,41.79,39,22.52Z"/><path class="cls-1" d="M179.59,136.54l-8.05,13.93L210.6,173l24.16-41.8L211,117.53"/><path class="cls-1" d="M195,145.34l-23.49,5.11"/><path class="cls-2" d="M186.46,70l-83.7,144.82"/><path class="cls-2" d="M64.14,35.62l8.74,15.12"/><path class="cls-2" d="M206.4,35.62l-8.74,15.12"/><path class="cls-2" d="M136.23,16.31V33.77"/><path class="cls-2" d="M99.34,21.17,103.85,38"/><path class="cls-2" d="M173.34,21.17,168.83,38"/></svg>