<svg id="Layer_1" data-name="Layer 1" xmlns="http://www.w3.org/2000/svg" viewBox="0 0 270.32 239.08"><defs><style>.cls-1{fill:#38bdb6;}</style></defs><title>Artboard 10</title><path class="cls-1" d="M217.06,16.3H53.26A29.59,29.59,0,0,0,23.67,45.89v90.88a29.59,29.59,0,0,0,29.59,29.59h74.31c-1.75,20.12-12.75,41.35-12.85,41.57a9.86,9.86,0,0,0,2.14,11.93,12.6,12.6,0,0,0,8.83,2.91,29.17,29.17,0,0,0,4.24-.35c30.28-4.51,56.38-39.64,67.09-56.06h20a29.59,29.59,0,0,0,29.59-29.59V45.89A29.59,29.59,0,0,0,217.06,16.3Zm9.86,120.41a9.86,9.86,0,0,1-9.86,9.86H191.57a9.86,9.86,0,0,0-8.43,4.73c-16.72,27.42-32.05,40.29-42.78,46.35,4.14-11.86,8.09-27.49,6.93-41.91a9.86,9.86,0,0,0-9.86-9.07H53.26a9.86,9.86,0,0,1-9.86-9.86V45.89A9.86,9.86,0,0,1,53.26,36h163.8a9.86,9.86,0,0,1,9.86,9.86Z"/><path class="cls-1" d="M143.79,97.32H87.08a9.86,9.86,0,1,0,0,19.72h56.71a9.86,9.86,0,0,0,0-19.72Z"/><path class="cls-1" d="M183.24,65.26H87.08a9.86,9.86,0,1,0,0,19.72h96.15a9.86,9.86,0,1,0,0-19.72Z"/></svg>