<svg xmlns="http://www.w3.org/2000/svg" data-name="Layer 1" viewBox="0 0 100 125" x="0px" y="0px"><title>ALL</title><path d="M33,76.93H19a1,1,0,0,1-1-1V39.07a1,1,0,0,1,1-1H33a1,1,0,0,1,1,1V75.93A1,1,0,0,1,33,76.93Zm-13-2H32V40.07H20V74.93Z"/><path d="M57,76.93H43a1,1,0,0,1-1-1V51.07a1,1,0,0,1,1-1H57a1,1,0,0,1,1,1V75.93A1,1,0,0,1,57,76.93Zm-13-2H56V52.07H44V74.93Z"/><path d="M81,76.93H67a1,1,0,0,1-1-1V24.07a1,1,0,0,1,1-1H81a1,1,0,0,1,1,1V75.93A1,1,0,0,1,81,76.93Zm-13-2H80V25.07H68V74.93Z"/><text x="0" y="115" fill="#000000" font-size="5px" font-weight="bold" font-family="'Helvetica Neue', Helvetica, Arial-Unicode, Arial, Sans-serif">Created by KΛPKLΛM</text><text x="0" y="120" fill="#000000" font-size="5px" font-weight="bold" font-family="'Helvetica Neue', Helvetica, Arial-Unicode, Arial, Sans-serif">from the Noun Project</text></svg>