<svg id="Layer_1" data-name="Layer 1" xmlns="http://www.w3.org/2000/svg" viewBox="0 0 270.32 239.08"><defs><style>.cls-1{fill:#38bdb6;}</style></defs><title>Artboard 10 copy 4</title><path class="cls-1" d="M252,111.84c1.4-15.87-13.4-20.5-19.27-20.5q-34.14,0-68.29,0c3.28-7.13,7.27-26,2.24-52.08-2-10.3-8.06-17.15-15.8-17-6.24.11-12.19,4.92-12.82,10.91a199.12,199.12,0,0,1-3.83,22.4c-4.9,20.53-31.12,47.62-47.71,57.08V212.89c11.25,6.36,23.45,8.58,36.47,8.33,20.58-.39,79.37,0,90-.12,7.54,0,15.06-3.65,18.67-12.75,4.94-12.42-7.79-18.64-7.79-18.64s13.94.69,17.13-11.82c3.27-12.84-9.56-17.92-9.56-17.92,8.67-.95,14.23-3.21,16.33-11,2.47-9.21-3.46-16.12-12.83-20.13C236.36,128.69,250.68,126.37,252,111.84ZM72.05,96.69H33.75a7.07,7.07,0,0,0-7.07,7.07V217.19a7.07,7.07,0,0,0,7.07,7.07h38.3a7.07,7.07,0,0,0,7.07-7.07V103.76A7.07,7.07,0,0,0,72.05,96.69Z"/></svg>