<?xml version="1.0" standalone="no"?>
<!DOCTYPE svg PUBLIC "-//W3C//DTD SVG 20010904//EN"
 "http://www.w3.org/TR/2001/REC-SVG-20010904/DTD/svg10.dtd">
<svg version="1.0" xmlns="http://www.w3.org/2000/svg"
 width="500.000000pt" height="500.000000pt" viewBox="0 0 500.000000 500.000000"
 preserveAspectRatio="xMidYMid meet">
<metadata>
Created by potrace 1.15, written by Peter Selinger 2001-2017
</metadata>
<g transform="translate(0.000000,500.000000) scale(0.100000,-0.100000)"
fill="#000000" stroke="none">
<path d="M1960 4902 c-32 -14 -60 -39 -75 -68 -12 -24 -15 -83 -15 -359 0
-301 2 -333 18 -365 47 -89 180 -93 232 -7 19 30 20 52 20 372 0 323 -1 342
-20 373 -30 49 -110 76 -160 54z"/>
<path d="M1039 4587 c-43 -28 -65 -87 -55 -142 7 -35 35 -68 224 -259 119
-120 231 -224 249 -232 44 -19 82 -18 122 4 62 33 89 119 57 180 -18 32 -432
445 -463 461 -36 18 -97 13 -134 -12z"/>
<path d="M2825 4591 c-16 -10 -125 -115 -242 -232 -178 -180 -213 -220 -218
-251 -9 -49 9 -101 46 -133 38 -31 68 -39 117 -30 31 6 70 39 255 223 120 119
225 229 233 244 32 62 6 151 -55 183 -41 20 -100 19 -136 -4z"/>
<path d="M3810 4401 c-14 -4 -41 -16 -60 -25 -19 -10 -461 -444 -982 -964
-521 -520 -949 -944 -951 -942 -2 3 -30 52 -62 110 -151 271 -277 462 -358
542 -151 148 -404 268 -629 297 -89 12 -196 3 -242 -21 -33 -16 -236 -221
-236 -238 0 -8 126 -141 280 -295 l280 -280 215 -645 215 -645 423 -421 c232
-232 444 -436 470 -454 244 -163 572 -169 827 -13 62 38 177 148 667 637 415
415 598 604 614 636 17 33 24 68 27 132 4 76 1 92 -20 140 -51 111 -140 176
-254 186 -35 2 -64 7 -64 9 0 2 10 23 22 46 33 64 32 183 -3 258 -48 103 -142
170 -256 185 -29 3 -53 7 -53 8 0 0 9 25 20 54 74 194 -54 404 -261 429 l-51
6 385 386 c253 254 392 401 406 429 81 162 20 350 -141 433 -46 24 -180 36
-228 20z"/>
</g>
</svg>
