<?xml version="1.0" standalone="no"?>
<!DOCTYPE svg PUBLIC "-//W3C//DTD SVG 20010904//EN"
 "http://www.w3.org/TR/2001/REC-SVG-20010904/DTD/svg10.dtd">
<svg version="1.0" xmlns="http://www.w3.org/2000/svg"
 width="500.000000pt" height="500.000000pt" viewBox="0 0 500.000000 500.000000"
 preserveAspectRatio="xMidYMid meet">
<metadata>
Created by potrace 1.15, written by Peter Selinger 2001-2017
</metadata>
<g transform="translate(0.000000,500.000000) scale(0.100000,-0.100000)"
fill="#000000" stroke="none">
<path d="M2361 4989 c-190 -34 -378 -177 -462 -353 -52 -109 -72 -206 -66
-321 17 -294 220 -536 504 -599 276 -62 561 61 703 303 110 188 118 416 20
620 -73 151 -233 286 -400 335 -67 20 -226 28 -299 15z"/>
<path d="M1530 3644 c-1113 -153 -1168 -163 -1233 -222 -60 -54 -75 -168 -33
-257 25 -55 366 -513 498 -669 183 -218 350 -266 433 -125 26 43 26 143 1 214
-10 28 -51 124 -92 214 -40 91 -72 166 -71 167 1 2 142 13 313 25 l311 23 6
150 c6 147 32 335 62 446 8 30 15 56 15 58 0 4 -32 0 -210 -24z"/>
<path d="M4373 3639 c-38 -19 -529 -384 -803 -596 l-104 -81 -466 233 c-256
128 -489 240 -519 249 -70 20 -184 20 -244 0 -96 -33 -175 -133 -196 -250 -21
-113 18 -222 111 -314 60 -59 147 -104 598 -308 622 -281 636 -287 721 -287
67 0 80 3 116 28 91 63 1069 968 1095 1013 67 115 22 260 -97 315 -57 26 -157
25 -212 -2z"/>
<path d="M1566 2538 c-7 -18 -191 -415 -408 -883 -636 -1368 -590 -1262 -591
-1370 -1 -81 16 -126 63 -173 79 -79 188 -100 285 -53 105 51 183 147 670 825
l180 251 230 63 c127 34 400 107 609 162 407 108 460 128 540 206 127 126 123
304 -10 393 -25 16 -123 60 -218 97 -94 37 -427 168 -740 291 -313 122 -575
223 -583 223 -7 0 -19 -15 -27 -32z"/>
</g>
</svg>
