<?xml version="1.0" standalone="no"?>
<!DOCTYPE svg PUBLIC "-//W3C//DTD SVG 20010904//EN"
 "http://www.w3.org/TR/2001/REC-SVG-20010904/DTD/svg10.dtd">
<svg version="1.0" xmlns="http://www.w3.org/2000/svg"
 width="368.000000pt" height="365.000000pt" viewBox="0 0 368.000000 365.000000"
 preserveAspectRatio="xMidYMid meet">
<metadata>
Created by potrace 1.15, written by Peter Selinger 2001-2017
</metadata>
<g transform="translate(0.000000,365.000000) scale(0.100000,-0.100000)"
fill="#000000" stroke="none">
<path d="M51 3636 c-52 -29 -50 -7 -51 -813 0 -562 3 -759 12 -778 26 -57 2
-55 828 -55 826 0 802 -2 828 55 9 19 12 216 12 776 0 814 2 791 -55 817 -40
18 -1541 16 -1574 -2z m1429 -816 l0 -630 -640 0 -640 0 0 630 0 630 640 0
640 0 0 -630z"/>
<path d="M2058 3634 c-15 -8 -32 -23 -38 -34 -6 -12 -10 -280 -10 -783 l0
-764 26 -26 c34 -34 75 -42 113 -22 64 33 62 -2 59 831 l-3 756 -33 29 c-36
32 -72 37 -114 13z"/>
<path d="M2550 3638 c-14 -7 -33 -29 -42 -48 -17 -32 -18 -90 -18 -770 0 -680
1 -738 18 -770 37 -75 145 -73 177 4 13 30 15 147 15 766 0 764 0 773 -43 808
-23 19 -79 24 -107 10z"/>
<path d="M3045 3638 c-11 -6 -28 -20 -37 -32 -16 -19 -18 -76 -18 -783 l0
-763 28 -30 c36 -40 77 -47 120 -20 18 11 37 32 42 46 7 17 9 299 8 781 l-3
755 -33 29 c-34 31 -72 37 -107 17z"/>
<path d="M3535 3638 c-11 -6 -28 -20 -37 -32 -16 -19 -18 -76 -18 -783 l0
-763 28 -30 c36 -40 77 -47 120 -20 18 11 37 32 42 46 6 15 10 312 10 776 l0
750 -34 34 c-36 36 -73 43 -111 22z"/>
<path d="M2020 1036 c0 -597 1 -627 20 -689 97 -314 478 -445 753 -260 40 27
55 32 67 24 48 -35 121 -73 165 -87 241 -74 495 37 603 263 l37 78 3 648 3
647 -160 0 -161 0 -2 -608 -3 -608 -25 -37 c-74 -108 -232 -101 -290 13 -19
38 -20 61 -20 640 l0 600 -165 0 -165 0 -2 -614 c-3 -603 -3 -615 -24 -642
-36 -49 -70 -67 -131 -72 -49 -3 -64 0 -93 20 -19 13 -45 39 -57 57 l-23 34 0
608 0 609 -165 0 -165 0 0 -624z"/>
<path d="M125 1633 c-69 -36 -107 -99 -107 -173 0 -110 82 -190 195 -190 106
0 187 85 187 196 0 65 -42 134 -99 164 -49 24 -133 26 -176 3z"/>
<path d="M755 1633 c-70 -37 -105 -94 -105 -174 0 -106 83 -189 189 -189 112
0 191 78 191 190 0 113 -79 190 -192 190 -29 -1 -66 -8 -83 -17z"/>
<path d="M1368 1621 c-158 -100 -88 -351 99 -351 168 0 258 185 152 312 -61
74 -169 91 -251 39z"/>
<path d="M141 1010 c-93 -40 -140 -128 -119 -226 14 -65 77 -128 142 -142 125
-26 236 60 236 184 0 107 -73 185 -178 191 -32 1 -68 -2 -81 -7z"/>
<path d="M752 999 c-132 -67 -136 -270 -7 -337 136 -70 285 18 285 168 0 105
-72 181 -178 187 -44 3 -67 -1 -100 -18z"/>
<path d="M1395 1006 c-16 -7 -45 -28 -62 -46 -105 -108 -47 -286 104 -320 128
-29 256 106 222 233 -30 116 -157 180 -264 133z"/>
<path d="M122 369 c-115 -58 -139 -210 -49 -304 72 -74 172 -81 255 -19 102
78 94 239 -16 314 -49 34 -133 38 -190 9z"/>
<path d="M765 376 c-168 -74 -146 -318 32 -365 75 -20 148 7 200 75 22 30 28
49 31 103 3 59 0 71 -26 112 -50 77 -156 111 -237 75z"/>
<path d="M1395 375 c-75 -41 -115 -102 -115 -177 1 -165 193 -254 316 -146 47
42 67 83 67 143 1 106 -74 186 -181 192 -39 3 -66 -1 -87 -12z"/>
</g>
</svg>
