<?xml version="1.0" encoding="UTF-8" standalone="no"?>
<svg
   xmlns:dc="http://purl.org/dc/elements/1.1/"
   xmlns:cc="http://creativecommons.org/ns#"
   xmlns:rdf="http://www.w3.org/1999/02/22-rdf-syntax-ns#"
   xmlns:svg="http://www.w3.org/2000/svg"
   xmlns="http://www.w3.org/2000/svg"
   xmlns:sodipodi="http://sodipodi.sourceforge.net/DTD/sodipodi-0.dtd"
   xmlns:inkscape="http://www.inkscape.org/namespaces/inkscape"
   version="1.0"
   width="863.000000pt"
   height="1280.000000pt"
   viewBox="0 0 863.000000 1280.000000"
   preserveAspectRatio="xMidYMid meet"
   id="svg182"
   sodipodi:docname="phone2.svg"
   inkscape:version="0.92.3 (2405546, 2018-03-11)">
  <metadata
     id="metadata188">
    <rdf:RDF>
      <cc:Work
         rdf:about="">
        <dc:format>image/svg+xml</dc:format>
        <dc:type
           rdf:resource="http://purl.org/dc/dcmitype/StillImage" />
        <dc:title></dc:title>
      </cc:Work>
    </rdf:RDF>
  </metadata>
  <defs
     id="defs186" />
  <sodipodi:namedview
     pagecolor="#ffffff"
     bordercolor="#666666"
     borderopacity="1"
     objecttolerance="10"
     gridtolerance="10"
     guidetolerance="10"
     inkscape:pageopacity="0"
     inkscape:pageshadow="2"
     inkscape:window-width="1920"
     inkscape:window-height="1017"
     id="namedview184"
     showgrid="false"
     inkscape:measure-start="0,0"
     inkscape:measure-end="0,0"
     inkscape:zoom="0.553125"
     inkscape:cx="1137.3361"
     inkscape:cy="883.85595"
     inkscape:window-x="-8"
     inkscape:window-y="-8"
     inkscape:window-maximized="1"
     inkscape:current-layer="svg182" />
  <g
     transform="translate(0.000000,1280.000000) scale(0.100000,-0.100000)"
     fill="#000000"
     stroke="none"
     id="g180">
    <path
       d="M3349 11509 c-365 -4 -675 -12 -730 -18 -137 -17 -242 -46 -344 -96 -163 -79 -274 -190 -350 -350 -84 -176 -94 -265 -95 -790 -1 -327 -3 -393 -15 -409 -22 -29 -22 -643 0 -672 21 -28 21 -380 0 -408 -22 -29 -22 -641 0 -673 13 -18 15 -398 18 -3109 l2 -3089 23 -85 c67 -249 220 -427 452 -525 35 -15 111 -40 169 -55 58 -16 97 -29 86 -29 -15 -1 -16 -4 -7 -13 10 -10 376 -13 1760 -13 961 0 1760 4 1776 8 19 5 26 11 18 16 -7 4 29 17 81 29 341 83 541 265 629 577 l23 80 3 3141 c2 2767 4 3143 17 3154 22 18 22 671 0 690 -12 10 -15 145 -17 963 l-3 952 -27 95 c-33 121 -67 197 -123 275 -133 187 -346 301 -627 335 -47 6 -437 15 -865 20 -840 10 -901 10 -1854 -1z m3306 -5189 l0 -4115 -2320 0 -2320 0 -3 4109 c-2 3281 0 4111 10 4118 7 4 1053 7 2323 5 l2310 -2 0 -4115z"
       id="path178" />
  </g>
  <rect
     style="fill:#000000;fill-opacity:1;stroke:#000000;stroke-width:1.70604932;stroke-miterlimit:4;stroke-dasharray:none;stroke-opacity:1"
     id="rect214"
     width="466.17111"
     height="822.70001"
     x="199.32889"
     y="236.8" />
</svg>
