<?xml version="1.0" standalone="no"?>
<!DOCTYPE svg PUBLIC "-//W3C//DTD SVG 20010904//EN"
 "http://www.w3.org/TR/2001/REC-SVG-20010904/DTD/svg10.dtd">
<svg version="1.0" xmlns="http://www.w3.org/2000/svg"
 width="500.000000pt" height="500.000000pt" viewBox="0 0 500.000000 500.000000"
 preserveAspectRatio="xMidYMid meet">
<metadata>
Created by potrace 1.15, written by Peter Selinger 2001-2017
</metadata>
<g transform="translate(0.000000,500.000000) scale(0.100000,-0.100000)"
fill="#000000" stroke="none">
<path d="M1096 4977 c-33 -18 -80 -84 -283 -389 -134 -203 -245 -368 -246
-368 -2 0 -59 68 -127 150 -90 109 -136 156 -165 170 -81 39 -192 17 -248 -49
-25 -31 -27 -39 -27 -131 l0 -98 228 -274 c249 -297 261 -308 357 -308 62 0
100 12 134 43 13 12 171 243 351 513 358 537 355 530 325 629 -14 50 -56 100
-102 124 -39 20 -153 13 -197 -12z"/>
<path d="M1980 4205 l0 -205 1495 0 1495 0 0 205 0 205 -1495 0 -1495 0 0
-205z"/>
<path d="M1110 3298 c-41 -21 -66 -54 -291 -391 -136 -203 -250 -368 -253
-368 -4 0 -61 65 -127 144 -134 161 -161 180 -254 179 -41 0 -67 -7 -99 -26
-66 -39 -86 -78 -86 -170 0 -43 5 -87 12 -99 6 -12 108 -138 226 -280 237
-285 251 -297 349 -297 111 0 100 -12 470 540 218 327 335 510 342 538 21 81
-12 171 -82 219 -56 39 -144 43 -207 11z"/>
<path d="M1980 2520 l0 -200 1495 0 1495 0 0 200 0 200 -1495 0 -1495 0 0
-200z"/>
<path d="M1115 1411 c-22 -10 -50 -29 -61 -42 -12 -13 -127 -182 -255 -375
l-234 -351 -122 147 c-128 154 -155 175 -235 186 -62 9 -141 -26 -179 -79 -26
-36 -29 -47 -29 -121 1 -45 6 -90 13 -102 7 -11 108 -136 226 -277 242 -291
257 -303 361 -295 104 7 100 3 470 558 l335 503 0 67 c0 60 -4 74 -30 112 -59
84 -167 112 -260 69z"/>
<path d="M1980 635 l0 -205 1495 0 1495 0 0 205 0 205 -1495 0 -1495 0 0 -205z"/>
</g>
</svg>
