<?xml version="1.0" standalone="no"?>
<!DOCTYPE svg PUBLIC "-//W3C//DTD SVG 20010904//EN"
 "http://www.w3.org/TR/2001/REC-SVG-20010904/DTD/svg10.dtd">
<svg version="1.0" xmlns="http://www.w3.org/2000/svg"
 width="500.000000pt" height="500.000000pt" viewBox="0 0 500.000000 500.000000"
 preserveAspectRatio="xMidYMid meet">
<metadata>
Created by potrace 1.15, written by Peter Selinger 2001-2017
</metadata>
<g transform="translate(0.000000,500.000000) scale(0.100000,-0.100000)"
fill="#000000" stroke="none">
<path d="M2315 4800 c-481 -36 -928 -217 -1303 -527 -352 -293 -615 -702 -738
-1151 -104 -380 -104 -824 0 -1204 107 -389 302 -724 591 -1013 354 -354 785
-572 1279 -646 196 -30 476 -30 672 0 494 74 925 292 1279 646 411 411 634
917 670 1520 16 271 -40 623 -145 901 -44 116 -167 362 -204 409 l-25 30 -73
-72 -73 -73 -125 0 -125 0 -140 -140 -139 -139 22 -38 c92 -154 156 -314 194
-484 31 -139 33 -445 5 -579 -129 -604 -573 -1048 -1177 -1177 -121 -26 -439
-26 -560 0 -597 128 -1039 563 -1172 1158 -20 89 -23 131 -23 299 0 168 3 210
23 299 132 589 564 1021 1153 1153 89 20 131 23 299 23 168 0 210 -3 299 -23
170 -38 330 -102 484 -194 l38 -22 139 139 140 140 0 125 0 125 73 73 72 73
-30 25 c-49 40 -362 190 -475 228 -284 95 -614 138 -905 116z"/>
<path d="M4018 4463 l-248 -248 0 -130 0 -130 -696 -696 c-695 -695 -697 -697
-697 -738 0 -22 8 -52 17 -65 17 -28 70 -46 108 -39 16 3 266 246 714 694
l689 689 130 0 130 0 255 255 255 255 -202 0 -203 0 -2 200 -3 200 -247 -247z"/>
<path d="M2358 3409 c-298 -44 -553 -228 -683 -494 -64 -130 -89 -241 -89
-395 0 -154 25 -265 89 -395 114 -234 337 -414 590 -476 125 -31 305 -31 429
-1 538 133 826 712 610 1227 l-15 38 -317 -315 c-203 -202 -333 -324 -362
-339 -64 -34 -196 -34 -257 -1 -54 28 -107 81 -135 135 -33 61 -33 193 1 257
15 29 137 159 339 362 l315 317 -38 15 c-153 64 -324 88 -477 65z"/>
</g>
</svg>
